<mxfile host="app.diagrams.net" modified="2024-08-17T07:53:15.138Z" agent="Mozilla/5.0 (Macintosh; Intel Mac OS X 10_15_7) AppleWebKit/537.36 (KHTML, like Gecko) Chrome/127.0.0.0 Safari/537.36" version="24.6.4" etag="vT2-dpGn42YzavCm1wm6" type="github">
  <diagram name="第 1 页" id="vEZq4IS-jz46THZDwoVn">
    <mxGraphModel>
      <root>
        <mxCell id="0" />
        <mxCell id="1" parent="0" />
      </root>
    </mxGraphModel>
  </diagram>
</mxfile>
